<svg width="99" height="87" viewBox="0 0 99 87" fill="none" xmlns="http://www.w3.org/2000/svg">
<path d="M86.625 31.3562C86.625 68.5125 49.5 79.75 49.5 79.75C49.5 79.75 12.375 68.5125 12.375 31.3562C12.375 26.825 12.7875 23.0188 13.2 19.9375C13.8188 15.4062 17.325 11.7812 22.275 10.6938C28.6688 9.0625 38.775 7.25 49.5 7.25C60.225 7.25 70.3312 9.0625 76.9313 10.6938C81.8812 11.7812 85.3875 15.5875 86.0062 19.9375C86.2125 23.0188 86.625 27.0062 86.625 31.3562Z" fill="#5D4037"/>
<path d="M49.5 12.6875C59.6063 12.6875 69.0938 14.5 75.2812 15.95C77.7562 16.4938 79.4062 18.3062 79.8187 20.6625C80.2313 24.1062 80.4375 27.7312 80.4375 31.3562C80.4375 59.6312 56.7188 71.05 49.5 73.7688C42.2812 70.8688 18.5625 59.45 18.5625 31.3562C18.5625 27.7312 18.7688 24.1062 19.1813 20.6625C19.3875 18.3062 21.2437 16.4938 23.7188 15.95C29.9062 14.5 39.3937 12.6875 49.5 12.6875ZM49.5 7.25C38.775 7.25 28.6687 9.0625 22.0687 10.6938C17.325 11.7812 13.6125 15.5875 13.2 19.9375C12.7875 23.0188 12.375 27.0062 12.375 31.3562C12.375 68.5125 49.5 79.75 49.5 79.75C49.5 79.75 86.625 68.5125 86.625 31.3562C86.625 26.825 86.2125 23.0188 85.8 19.9375C85.1812 15.4062 81.675 11.7812 76.725 10.6938C70.3313 9.0625 60.225 7.25 49.5 7.25Z" fill="#4CAF50"/>
<path d="M47.4375 50.75H51.5625V65.25H47.4375V50.75Z" fill="#DCEDC8"/>
<path d="M49.5 18.125C49.5 18.125 37.125 27.1875 37.125 41.6875C37.125 51.1125 43.9313 57.0938 47.4375 59.8125L49.5 54.375L51.5625 59.8125C55.0688 57.0938 61.875 51.1125 61.875 41.6875C61.875 27.1875 49.5 18.125 49.5 18.125Z" fill="#4CAF50"/>
<path d="M49.5 18.125C49.5 18.125 37.125 27.1875 37.125 41.6875C37.125 51.1125 43.9313 57.0938 47.4375 59.8125L49.5 54.375V18.125Z" fill="#81C784"/>
</svg>
