<svg width="139" height="118" viewBox="0 0 139 118" fill="none" xmlns="http://www.w3.org/2000/svg">
<path d="M49.8199 47.0082L35.6101 53.6826C35.0772 53.9309 34.75 54.3931 34.75 54.8921V68.2482C34.75 68.7473 35.0772 69.207 35.6101 69.4578L49.8228 76.137C50.3527 76.3853 51.0101 76.3853 51.54 76.137L65.7499 69.4578C66.2769 69.207 66.6042 68.7473 66.6042 68.2482V54.8921C66.6042 54.3931 66.2769 53.9334 65.7441 53.6826L51.5371 47.0082C51.2707 46.8829 50.9725 46.8214 50.6771 46.8214C50.3788 46.8214 50.0834 46.8829 49.817 47.0082H49.8199ZM122.931 59.032L120.562 60.1431C120.472 60.1849 120.42 60.2611 120.42 60.3447V62.572C120.42 62.6555 120.475 62.7317 120.562 62.7735L122.931 63.8872C123.021 63.929 123.128 63.929 123.218 63.8872L125.586 62.7735C125.673 62.7317 125.728 62.6555 125.728 62.572V60.3447C125.728 60.2611 125.673 60.1849 125.584 60.1431L123.215 59.032C123.171 59.0098 123.122 59 123.073 59C123.024 59 122.974 59.0098 122.931 59.032Z" fill="#388E3C"/>
<path d="M103.529 32.8532L96.6108 29.5762C96.3936 29.473 96.1272 29.4754 95.9129 29.5836C95.6986 29.6917 95.5654 29.886 95.5654 30.0974L95.5625 49.8919L89.183 46.8952C88.9166 46.7698 88.6183 46.7083 88.3229 46.7083C88.0275 46.7083 87.7293 46.7698 87.4628 46.8952H87.4657L73.2559 53.5695C72.7231 53.8178 72.3958 54.28 72.3958 54.7766V68.1327C72.3958 68.6317 72.7231 69.0914 73.2559 69.3422L87.4686 76.0215C87.9986 76.2698 88.6559 76.2698 89.1859 76.0215L103.396 69.3422C103.923 69.0939 104.25 68.6317 104.25 68.1327V33.8955C104.25 33.4628 103.972 33.0646 103.529 32.8532ZM95.1745 65.0426L88.7167 68.0786C88.4764 68.1917 88.1781 68.1917 87.9378 68.0786L81.4772 65.0426C81.231 64.9295 81.0833 64.7181 81.0833 64.4919V58.4198C81.0833 58.1937 81.231 57.9847 81.4743 57.8692L87.9349 54.8356H87.932C88.0536 54.779 88.1868 54.752 88.3229 54.752C88.459 54.752 88.5922 54.7815 88.7139 54.8356L95.1716 57.8692C95.4148 57.9847 95.5625 58.1961 95.5625 58.4223V64.4944C95.5625 64.7181 95.4148 64.9295 95.1745 65.0426Z" fill="#37474F"/>
<path d="M49.8199 47.0082L34.75 68.2482C34.75 68.7473 35.0772 69.207 35.6101 69.4578L49.8228 76.137C50.3527 76.3853 51.0101 76.3853 51.54 76.137L66.6042 54.8921C66.6042 54.3931 66.2769 53.9334 65.7441 53.6826L51.5371 47.0082C51.2707 46.8829 50.9725 46.8214 50.6771 46.8214C50.3788 46.8214 50.0834 46.8829 49.817 47.0082" fill="#2E7D32"/>
<path d="M49.8199 47.0082L35.6101 53.6826C35.0772 53.9309 34.75 54.3931 34.75 54.8921L49.8199 76.137C50.3499 76.3853 51.0072 76.3853 51.5371 76.137L65.747 69.4578C66.2769 69.207 66.6042 68.7473 66.6042 68.2482L51.5371 47.0082C51.2707 46.8829 50.9725 46.8214 50.6771 46.8214C50.3788 46.8214 50.0834 46.8829 49.817 47.0082" fill="#4CAF50"/>
<path d="M138.14 53.5696L123.933 46.8952C123.667 46.7698 123.368 46.7083 123.073 46.7083C122.778 46.7083 122.479 46.7698 122.213 46.8952H122.216L108.006 53.5696C107.476 53.8178 107.146 54.2898 107.146 54.8061V68.1081C107.146 68.6219 107.476 69.0964 108.006 69.3447L122.219 76.024C122.751 76.2747 123.403 76.2747 123.936 76.024L130.489 72.9437C131.089 72.661 131.086 71.9308 130.483 71.6506L116.224 65.045C115.984 64.9295 115.833 64.7156 115.833 64.4846V58.4223C115.833 58.1961 115.978 57.9872 116.21 57.879L122.682 54.8405H122.679C122.801 54.784 122.934 54.7569 123.07 54.7569C123.206 54.7569 123.339 54.7864 123.461 54.8405L129.933 57.8815C130.165 57.9896 130.31 58.1986 130.31 58.4248V63.3709C130.31 63.5823 130.443 63.779 130.66 63.8847C130.877 63.988 131.144 63.988 131.361 63.8823L138.305 60.4578C138.734 60.2464 139 59.8555 139 59.4327V54.811C139 54.2923 138.67 53.8178 138.14 53.5696ZM30.9941 53.5696L16.7871 46.8952C16.5207 46.7698 16.2225 46.7083 15.9271 46.7083C15.6317 46.7083 15.3334 46.7698 15.067 46.8952H15.0699L0.860062 53.5696C0.330125 53.8178 0 54.2898 0 54.8061V73.1575C0 73.369 0.133208 73.5656 0.350396 73.6713C0.567583 73.7746 0.834 73.7746 1.05119 73.6689L7.9954 70.2444C8.42398 70.033 8.6875 69.6421 8.6875 69.2193V58.4198C8.6875 58.1937 8.83229 57.9847 9.06396 57.8765L15.5361 54.838C15.6578 54.7815 15.791 54.7545 15.9271 54.7545C16.0632 54.7545 16.1964 54.784 16.318 54.838L22.7902 57.879C23.0219 57.9872 23.1667 58.1961 23.1667 58.4223V69.2218C23.1667 69.6446 23.4302 70.0355 23.8617 70.2469L30.8059 73.6713C31.0231 73.777 31.2895 73.777 31.5067 73.6738C31.721 73.5656 31.8542 73.369 31.8542 73.1575V54.8085C31.8542 54.2923 31.524 53.8178 30.9941 53.5696Z" fill="#37474F"/>
</svg>
